<svg width="53" height="54" viewBox="0 0 53 54" fill="none" xmlns="http://www.w3.org/2000/svg">
<path d="M7.25 17.75V36H0.5V17.75H7.25Z" fill="#FFF1FC" stroke="#FFF1FC"/>
<path d="M13 35V41.75H6.25V35H13Z" fill="#FFF1FC" stroke="#FFF1FC"/>
<path d="M44.25 23.5V30.25H37.5V23.5H44.25Z" fill="#FFF1FC" stroke="#FFF1FC"/>
<path d="M36.25 15.5V22.25H29.5V15.5H36.25Z" fill="#FFF1FC" stroke="#FFF1FC"/>
<path d="M36.25 31.5V38.25H29.5V31.5H36.25Z" fill="#FFF1FC" stroke="#FFF1FC"/>
<path d="M52.25 15.5V22.25H45.5V15.5H52.25Z" fill="#FFF1FC" stroke="#FFF1FC"/>
<path d="M52.25 31.5V38.25H45.5V31.5H52.25Z" fill="#FFF1FC" stroke="#FFF1FC"/>
<path d="M24.5 0.5V53.25H17.75V47.5H12V40.75H17.75V13H12V6.25H17.75V0.5H24.5Z" fill="#FFF1FC" stroke="#FFF1FC"/>
<path d="M13 12V18.75H6.25V12H13Z" fill="#FFF1FC" stroke="#FFF1FC"/>
</svg>
