<svg width="51" height="56" viewBox="0 0 51 56" fill="none" xmlns="http://www.w3.org/2000/svg">
<path d="M27.4895 1.70327L33.4018 17.7634C33.651 18.4533 34.1589 18.9995 34.7913 19.2678L48.3599 25.1706C51.0143 26.3301 51.0143 30.0959 48.3599 31.2554L34.7913 37.1582C34.1589 37.4361 33.6606 37.9823 33.4018 38.6626L28.0261 53.2662C27.0487 55.9205 23.302 55.9205 22.3246 53.2662L16.9489 38.6626C16.6997 37.9727 16.1918 37.4265 15.5594 37.1582L1.99074 31.2554C-0.663581 30.0959 -0.663581 26.3301 1.99074 25.1706L15.5594 19.2678C16.1918 18.9899 16.6901 18.4437 16.9489 17.7634L22.8612 1.70327C23.6949 -0.567757 26.6558 -0.567757 27.4895 1.70327Z" fill="#FFEACF"/>
</svg>
