<svg width="48" height="54" viewBox="0 0 48 54" fill="none" xmlns="http://www.w3.org/2000/svg">
<path d="M7.25 17.75V36H0.5V17.75H7.25Z" fill="#FFF1FC" stroke="#FFF1FC"/>
<path d="M13 35V41.75H6.25V35H13Z" fill="#FFF1FC" stroke="#FFF1FC"/>
<path d="M41.2469 23.7524V29.2466H35.7528V23.7524H41.2469Z" fill="#FFF1FC" stroke="#FFF1FC"/>
<path d="M34.9941 17.5V22.9941H29.5V17.5H34.9941Z" fill="#FFF1FC" stroke="#FFF1FC"/>
<path d="M34.9941 30.0059V35.5H29.5V30.0059H34.9941Z" fill="#FFF1FC" stroke="#FFF1FC"/>
<path d="M47.4999 17.5V22.9941H42.0057V17.5H47.4999Z" fill="#FFF1FC" stroke="#FFF1FC"/>
<path d="M47.4999 30.0059V35.5H42.0057V30.0059H47.4999Z" fill="#FFF1FC" stroke="#FFF1FC"/>
<path d="M24.5 0.5V53.25H17.75V47.5H12V40.75H17.75V13H12V6.25H17.75V0.5H24.5Z" fill="#FFF1FC" stroke="#FFF1FC"/>
<path d="M13 12V18.75H6.25V12H13Z" fill="#FFF1FC" stroke="#FFF1FC"/>
</svg>
